# Blender 3.4.1
# www.blender.org
mtllib barrier.mtl
o kw_barrier_rod
v -0.084247 1.565907 3.883688
v -0.084247 1.969733 3.883688
v -0.084247 1.565909 -3.862663
v -0.084247 1.969734 -3.862662
v 0.084247 1.565907 3.883688
v 0.084247 1.969733 3.883688
v 0.084247 1.565909 -3.862663
v 0.084247 1.969734 -3.862662
vn -1.0000 -0.0000 -0.0000
vn -0.0000 -0.0000 -1.0000
vn 1.0000 -0.0000 -0.0000
vn -0.0000 -0.0000 1.0000
vn -0.0000 -1.0000 -0.0000
vn -0.0000 1.0000 -0.0000
vt 0.074010 0.200013
vt 0.000045 0.073923
vt 0.074010 0.147887
vt 0.000045 0.021797
vt 0.052171 0.169636
vt 0.999955 0.073921
vt 0.000045 0.169636
vt 0.999955 0.021795
vt 0.052261 0.200013
vt 0.000045 0.095669
vt 0.000045 0.000052
vt 0.000045 0.147795
vt 0.052261 0.147887
vt 0.052171 0.147887
vt 0.999955 0.095670
vt 0.000045 0.147887
vt 0.999955 0.147797
vt 0.999955 0.000045
s 1
usemtl kw_barrier_wood
f 1/2/1 4/8/1 3/6/1
f 3/5/2 8/16/2 7/14/2
f 7/15/3 6/12/3 5/10/3
f 5/9/4 2/3/4 1/1/4
f 3/6/5 5/10/5 1/2/5
f 8/18/6 2/4/6 6/11/6
f 1/2/1 2/4/1 4/8/1
f 3/5/2 4/7/2 8/16/2
f 7/15/3 8/17/3 6/12/3
f 5/9/4 6/13/4 2/3/4
f 3/6/5 7/15/5 5/10/5
f 8/18/6 4/8/6 2/4/6
o kw_barrier_stand
v 0.084247 1.562333 -3.159306
v 0.084247 1.966158 -3.159306
v 0.084247 1.562333 -2.675516
v 0.084247 1.966158 -2.675516
v 0.130053 1.966158 -3.159306
v 0.130053 1.562333 -3.159306
v 0.130053 1.966158 -2.675516
v 0.130053 1.562333 -2.675516
v 0.084247 1.562333 -2.842962
v 0.084247 1.562333 -2.991859
v 0.084247 1.966158 -2.991859
v 0.084247 1.966158 -2.842962
v 0.135648 1.550837 -2.855748
v 0.135648 1.550837 -2.979073
v 0.130053 1.966158 -2.991859
v 0.130053 1.966158 -2.842962
v 0.892684 -0.004557 -2.842962
v 0.892684 -0.004557 -2.991859
v 1.106489 -0.004557 -2.991859
v 1.106489 -0.004557 -2.842962
v 0.239359 1.337754 -2.855748
v 0.277168 1.669240 -2.842962
v 0.277168 1.669240 -2.991859
v 0.239359 1.337754 -2.979073
v 0.130053 1.562333 -2.842962
v 0.130053 1.562333 -2.991859
v 0.244955 1.326257 -2.842962
v 0.244955 1.326257 -2.991859
v 0.542458 0.715011 -2.865585
v 0.542458 0.715011 -2.969237
v 0.645401 0.926044 -2.842962
v 0.645401 0.926044 -2.991859
v 0.656585 0.480528 -2.865585
v 0.656585 0.480528 -2.969237
v 0.816875 0.579962 -2.842962
v 0.816875 0.579962 -2.991859
v 0.532558 0.735352 -2.991859
v 0.532558 0.735352 -2.842962
v 0.666485 0.460186 -2.842962
v 0.666485 0.460186 -2.991859
v -0.084247 1.562333 -3.159306
v -0.084247 1.966158 -3.159306
v -0.084247 1.562333 -2.675516
v -0.084247 1.966158 -2.675516
v -0.130053 1.966158 -3.159306
v -0.130053 1.562333 -3.159306
v -0.130053 1.966158 -2.675516
v -0.130053 1.562333 -2.675516
v -0.084247 1.562333 -2.842962
v -0.084247 1.562333 -2.991859
v -0.084247 1.966158 -2.991859
v -0.084247 1.966158 -2.842962
v -0.135648 1.550837 -2.855748
v -0.135648 1.550837 -2.979073
v -0.130053 1.966158 -2.991859
v -0.130053 1.966158 -2.842962
v -0.892684 -0.004557 -2.842962
v -0.892684 -0.004557 -2.991859
v -1.106489 -0.004557 -2.991859
v -1.106489 -0.004557 -2.842962
v -0.239359 1.337754 -2.855748
v -0.277168 1.669240 -2.842962
v -0.277168 1.669240 -2.991859
v -0.239359 1.337754 -2.979073
v -0.130053 1.562333 -2.842962
v -0.130053 1.562333 -2.991859
v -0.244955 1.326257 -2.842962
v -0.244955 1.326257 -2.991859
v 0.000000 1.550837 -2.855748
v 0.000000 1.550837 -2.979073
v 0.000000 1.337754 -2.855748
v 0.000000 1.337754 -2.979073
v -0.542458 0.715011 -2.865585
v -0.542458 0.715011 -2.969237
v -0.645401 0.926044 -2.842962
v -0.645401 0.926044 -2.991859
v -0.656585 0.480528 -2.865585
v -0.656585 0.480528 -2.969237
v -0.816875 0.579962 -2.842962
v -0.816875 0.579962 -2.991859
v -0.532558 0.735352 -2.991859
v -0.532558 0.735352 -2.842962
v -0.666485 0.460186 -2.842962
v -0.666485 0.460186 -2.991859
v 0.000000 0.715011 -2.969237
v 0.000000 0.715011 -2.865585
v 0.000000 0.480528 -2.865585
v 0.000000 0.480528 -2.969237
vn -1.0000 -0.0000 -0.0000
vn 1.0000 -0.0000 -0.0000
vn -0.0000 1.0000 -0.0000
vn -0.0000 -0.0000 1.0000
vn -0.0000 -1.0000 -0.0000
vn -0.0000 -0.0000 -1.0000
vn 0.8960 0.4440 -0.0000
vn -0.8992 -0.4376 -0.0000
vn -0.8960 0.4440 -0.0000
vn 0.8992 -0.4376 -0.0000
vt 0.459176 0.611658
vt 0.474425 0.596408
vt 0.758560 0.611658
vt 0.608868 0.596408
vt 0.624117 0.611658
vt 0.758560 0.772722
vt 0.474425 0.787972
vt 0.459176 0.772722
vt 0.624117 0.772722
vt 0.608868 0.787972
vt 0.608868 0.611658
vt 0.474425 0.611658
vt 0.608868 0.772723
vt 0.474425 0.772722
vt 0.459176 0.716976
vt 0.758560 0.716976
vt 0.459176 0.667405
vt 0.758560 0.667405
vt 0.624117 0.667405
vt 0.624117 0.716976
vt 0.222624 0.874328
vt 0.708573 0.549359
vt 0.484577 0.549359
vt 0.181567 0.874328
vt 0.667515 0.549359
vt 0.608868 0.667405
vt 0.118474 0.999468
vt 0.608868 0.716976
vt 0.068904 0.999818
vt 0.000182 0.299675
vt 0.226881 0.298425
vt 0.177310 0.298425
vt 0.177310 0.227245
vt 0.113308 0.267275
vt 0.226881 0.227245
vt 0.063738 0.267624
vt 0.222624 0.795431
vt 0.555517 0.583887
vt 0.068125 0.889502
vt 0.117695 0.889153
vt 0.181567 0.795431
vt 0.596575 0.583887
vt 0.474425 0.716976
vt 0.008368 0.879776
vt 0.226881 0.878584
vt 0.474425 0.667405
vt 0.177310 0.878584
vt 0.226881 0.791175
vt 0.007134 0.792375
vt 0.177310 0.791175
vt 0.219350 0.564854
vt 0.342918 0.745798
vt 0.184842 0.564854
vt 0.308410 0.745798
vt 0.066177 0.613377
vt 0.115747 0.613028
vt 0.219350 0.478034
vt 0.420983 0.783793
vt 0.455491 0.783793
vt 0.184842 0.478034
vt 0.230345 0.783793
vt 0.065270 0.484795
vt 0.114840 0.484445
vt 0.177310 0.572385
vt 0.004047 0.573608
vt 0.226881 0.572385
vt 0.002610 0.471735
vt 0.226881 0.470502
vt 0.177310 0.470502
vt 0.752138 0.807868
vt 0.736888 0.792618
vt 0.452754 0.807868
vt 0.602446 0.792618
vt 0.587196 0.807868
vt 0.452754 0.968932
vt 0.736888 0.984182
vt 0.752138 0.968932
vt 0.587196 0.968932
vt 0.602446 0.984182
vt 0.602446 0.807868
vt 0.736888 0.807868
vt 0.602446 0.968932
vt 0.736888 0.968932
vt 0.752138 0.913185
vt 0.452754 0.913185
vt 0.752138 0.863614
vt 0.452754 0.863614
vt 0.587196 0.863614
vt 0.587196 0.913185
vt 0.769533 0.866484
vt 0.708573 0.459039
vt 0.484577 0.459039
vt 0.810590 0.866484
vt 0.667515 0.459039
vt 0.602446 0.863614
vt 0.873683 0.991625
vt 0.602446 0.913185
vt 0.923253 0.991975
vt 0.991975 0.291832
vt 0.765275 0.290582
vt 0.814847 0.290582
vt 0.814847 0.219402
vt 0.878849 0.259431
vt 0.765275 0.219402
vt 0.928419 0.259781
vt 0.769532 0.787588
vt 0.555517 0.424511
vt 0.924031 0.881659
vt 0.874461 0.881309
vt 0.810590 0.787588
vt 0.596575 0.424511
vt 0.736888 0.913185
vt 0.983789 0.871933
vt 0.765276 0.870741
vt 0.736888 0.863614
vt 0.814847 0.870741
vt 0.765276 0.783331
vt 0.985022 0.784532
vt 0.814847 0.783331
vt 0.708573 0.504199
vt 0.484577 0.504199
vt 0.667515 0.504199
vt 0.555517 0.504199
vt 0.596575 0.504199
vt 0.772807 0.557010
vt 0.342918 0.384605
vt 0.807315 0.557010
vt 0.308410 0.384605
vt 0.925979 0.605534
vt 0.876409 0.605184
vt 0.772807 0.470190
vt 0.420983 0.346610
vt 0.455491 0.346610
vt 0.807315 0.470190
vt 0.230345 0.346610
vt 0.926886 0.476951
vt 0.877317 0.476602
vt 0.814847 0.564542
vt 0.988109 0.565764
vt 0.765276 0.564542
vt 0.989547 0.463891
vt 0.765276 0.462658
vt 0.814847 0.462658
vt 0.308410 0.565202
vt 0.342918 0.565202
vt 0.420983 0.565202
vt 0.455491 0.565202
vt 0.230345 0.565202
s 1
usemtl kw_barrier_wood.001
f 17/34/7 11/24/7 12/27/7 20/38/7
f 33/61/8 24/46/8 15/31/8 16/32/8
f 20/38/9 12/27/9 15/31/9 24/46/9
f 12/28/10 11/25/10 16/32/10 15/31/10
f 18/35/11 9/19/11 14/30/11 34/64/11
f 9/20/12 10/22/12 13/29/12 14/30/12
f 11/26/11 17/33/11 33/61/11 16/32/11
f 17/33/11 18/35/11 34/64/11 33/61/11
f 10/23/9 19/37/9 23/44/9 13/29/9
f 19/37/9 20/38/9 24/46/9 23/44/9
f 14/30/8 13/29/8 23/44/8 34/64/8
f 43/80/10 47/85/10 25/48/10 28/54/10
f 9/21/7 18/36/7 19/37/7 10/23/7
f 18/36/7 17/34/7 20/38/7 19/37/7
f 26/50/11 27/51/11 28/53/11 25/49/11
f 44/81/13 43/80/13 28/54/13 27/52/13
f 47/86/14 48/87/14 26/50/14 25/49/14
f 48/87/12 44/81/12 27/52/12 26/50/12
f 34/65/12 23/45/12 31/58/12 36/68/12
f 22/43/12 32/60/12 80/142/12 78/140/12
f 23/45/13 24/47/13 30/57/13 31/58/13
f 24/47/10 33/62/10 35/67/10 30/57/10
f 22/42/14 21/39/14 33/63/14 34/65/14
f 21/39/14 29/55/14 35/66/14 33/63/14
f 32/59/14 22/42/14 34/65/14 36/68/14
f 29/55/14 32/59/14 36/68/14 35/66/14
f 36/68/12 31/58/12 40/74/12 45/82/12
f 21/40/9 22/43/9 78/140/9 77/138/9
f 32/60/11 29/56/11 79/141/11 80/142/11
f 29/56/10 21/41/10 77/139/10 79/141/10
f 35/66/14 36/68/14 45/82/14 46/84/14
f 31/58/13 30/57/13 39/73/13 40/74/13
f 30/57/10 35/67/10 46/83/10 39/73/10
f 45/82/12 40/74/12 44/81/12 48/87/12
f 42/77/11 41/76/11 95/164/11 96/165/11
f 40/74/13 39/73/13 43/80/13 44/81/13
f 39/73/10 46/83/10 47/85/10 43/80/10
f 38/71/14 37/69/14 46/84/14 45/82/14
f 37/69/14 41/75/14 47/86/14 46/84/14
f 42/78/14 38/71/14 45/82/14 48/87/14
f 41/75/14 42/78/14 48/87/14 47/86/14
f 41/76/10 37/70/10 94/163/10 95/164/10
f 38/72/12 42/79/12 96/166/12 93/162/12
f 37/70/9 38/72/9 93/162/9 94/163/9
f 57/103/8 60/107/8 52/96/8 51/93/8
f 73/130/7 56/101/7 55/100/7 64/115/7
f 60/107/9 64/115/9 55/100/9 52/96/9
f 52/97/10 55/100/10 56/101/10 51/94/10
f 58/104/11 74/133/11 54/99/11 49/88/11
f 49/89/12 54/99/12 53/98/12 50/91/12
f 51/95/11 56/101/11 73/130/11 57/102/11
f 57/102/11 73/130/11 74/133/11 58/104/11
f 50/92/9 53/98/9 63/113/9 59/106/9
f 59/106/9 63/113/9 64/115/9 60/107/9
f 54/99/7 74/133/7 63/113/7 53/98/7
f 87/154/10 68/123/10 65/117/10 91/159/10
f 49/90/8 50/92/8 59/106/8 58/105/8
f 58/105/8 59/106/8 60/107/8 57/103/8
f 66/119/11 65/118/11 68/122/11 67/120/11
f 88/155/15 67/121/15 68/123/15 87/154/15
f 91/160/16 65/118/16 66/119/16 92/161/16
f 92/161/12 66/119/12 67/121/12 88/155/12
f 74/134/12 76/137/12 71/127/12 63/114/12
f 62/112/12 78/140/12 80/142/12 72/129/12
f 63/114/15 71/127/15 70/126/15 64/116/15
f 64/116/10 70/126/10 75/136/10 73/131/10
f 62/111/16 74/134/16 73/132/16 61/108/16
f 61/108/16 73/132/16 75/135/16 69/124/16
f 72/128/16 76/137/16 74/134/16 62/111/16
f 69/124/16 75/135/16 76/137/16 72/128/16
f 76/137/12 89/156/12 84/148/12 71/127/12
f 61/109/9 77/138/9 78/140/9 62/112/9
f 72/129/11 80/142/11 79/141/11 69/125/11
f 69/125/10 79/141/10 77/139/10 61/110/10
f 75/135/16 90/158/16 89/156/16 76/137/16
f 71/127/15 84/148/15 83/147/15 70/126/15
f 70/126/10 83/147/10 90/157/10 75/136/10
f 89/156/12 92/161/12 88/155/12 84/148/12
f 86/151/11 96/165/11 95/164/11 85/150/11
f 84/148/15 88/155/15 87/154/15 83/147/15
f 83/147/10 87/154/10 91/159/10 90/157/10
f 82/145/16 89/156/16 90/158/16 81/143/16
f 81/143/16 90/158/16 91/160/16 85/149/16
f 86/152/16 92/161/16 89/156/16 82/145/16
f 85/149/16 91/160/16 92/161/16 86/152/16
f 85/150/10 95/164/10 94/163/10 81/144/10
f 82/146/12 93/162/12 96/166/12 86/153/12
f 81/144/9 94/163/9 93/162/9 82/146/9
o kw_barrier_stand.001
v 0.084247 1.562333 2.677364
v 0.084247 1.966158 2.677364
v 0.084247 1.562333 3.161154
v 0.084247 1.966158 3.161154
v 0.130053 1.966158 2.677364
v 0.130053 1.562333 2.677364
v 0.130053 1.966158 3.161154
v 0.130053 1.562333 3.161154
v 0.084247 1.562333 2.993708
v 0.084247 1.562333 2.844810
v 0.084247 1.966158 2.844810
v 0.084247 1.966158 2.993708
v 0.135648 1.550837 2.980922
v 0.135648 1.550837 2.857596
v 0.130053 1.966158 2.844810
v 0.130053 1.966158 2.993708
v 0.892684 -0.004557 2.993708
v 0.892684 -0.004557 2.844810
v 1.106489 -0.004557 2.844810
v 1.106489 -0.004557 2.993708
v 0.239359 1.337754 2.980922
v 0.277168 1.669240 2.993708
v 0.277168 1.669240 2.844810
v 0.239359 1.337754 2.857596
v 0.130053 1.562333 2.993708
v 0.130053 1.562333 2.844810
v 0.244955 1.326257 2.993708
v 0.244955 1.326257 2.844810
v 0.542458 0.715011 2.971085
v 0.542458 0.715011 2.867433
v 0.645401 0.926044 2.993708
v 0.645401 0.926044 2.844810
v 0.656585 0.480528 2.971085
v 0.656585 0.480528 2.867433
v 0.816875 0.579962 2.993707
v 0.816875 0.579962 2.844810
v 0.532558 0.735352 2.844810
v 0.532558 0.735352 2.993708
v 0.666485 0.460186 2.993707
v 0.666485 0.460186 2.844810
v -0.084247 1.562333 2.677364
v -0.084247 1.966158 2.677364
v -0.084247 1.562333 3.161154
v -0.084247 1.966158 3.161154
v -0.130053 1.966158 2.677364
v -0.130053 1.562333 2.677364
v -0.130053 1.966158 3.161154
v -0.130053 1.562333 3.161154
v -0.084247 1.562333 2.993708
v -0.084247 1.562333 2.844810
v -0.084247 1.966158 2.844810
v -0.084247 1.966158 2.993708
v -0.135648 1.550837 2.980922
v -0.135648 1.550837 2.857596
v -0.130053 1.966158 2.844810
v -0.130053 1.966158 2.993708
v -0.892684 -0.004557 2.993708
v -0.892684 -0.004557 2.844810
v -1.106489 -0.004557 2.844810
v -1.106489 -0.004557 2.993708
v -0.239359 1.337754 2.980922
v -0.277168 1.669240 2.993708
v -0.277168 1.669240 2.844810
v -0.239359 1.337754 2.857596
v -0.130053 1.562333 2.993708
v -0.130053 1.562333 2.844810
v -0.244955 1.326257 2.993708
v -0.244955 1.326257 2.844810
v 0.000000 1.550837 2.980922
v 0.000000 1.550837 2.857596
v 0.000000 1.337754 2.980922
v 0.000000 1.337754 2.857596
v -0.542458 0.715011 2.971085
v -0.542458 0.715011 2.867433
v -0.645401 0.926044 2.993708
v -0.645401 0.926044 2.844810
v -0.656585 0.480528 2.971085
v -0.656585 0.480528 2.867433
v -0.816875 0.579962 2.993707
v -0.816875 0.579962 2.844810
v -0.532558 0.735352 2.844810
v -0.532558 0.735352 2.993708
v -0.666485 0.460186 2.993707
v -0.666485 0.460186 2.844810
v 0.000000 0.715011 2.867433
v 0.000000 0.715011 2.971085
v 0.000000 0.480528 2.971085
v 0.000000 0.480528 2.867433
vn -1.0000 -0.0000 -0.0000
vn 1.0000 -0.0000 -0.0000
vn -0.0000 1.0000 -0.0000
vn -0.0000 -0.0000 1.0000
vn -0.0000 -1.0000 -0.0000
vn -0.0000 -0.0000 -1.0000
vn 0.8960 0.4440 -0.0000
vn -0.8992 -0.4376 -0.0000
vn -0.8960 0.4440 -0.0000
vn 0.8992 -0.4376 -0.0000
vt 0.459176 0.611658
vt 0.474425 0.596408
vt 0.758560 0.611658
vt 0.608868 0.596408
vt 0.624117 0.611658
vt 0.758560 0.772722
vt 0.474425 0.787972
vt 0.459176 0.772722
vt 0.624117 0.772722
vt 0.608868 0.787972
vt 0.608868 0.611658
vt 0.474425 0.611658
vt 0.608868 0.772723
vt 0.474425 0.772722
vt 0.459176 0.716976
vt 0.758560 0.716976
vt 0.459176 0.667405
vt 0.758560 0.667405
vt 0.624117 0.667405
vt 0.624117 0.716976
vt 0.222624 0.874328
vt 0.708573 0.549359
vt 0.484577 0.549359
vt 0.181567 0.874328
vt 0.667515 0.549359
vt 0.608868 0.667405
vt 0.118474 0.999468
vt 0.608868 0.716976
vt 0.068904 0.999818
vt 0.000182 0.299675
vt 0.226881 0.298425
vt 0.177310 0.298425
vt 0.177310 0.227245
vt 0.113308 0.267275
vt 0.226881 0.227245
vt 0.063738 0.267624
vt 0.222624 0.795431
vt 0.555517 0.583887
vt 0.068125 0.889502
vt 0.117695 0.889153
vt 0.181567 0.795431
vt 0.596575 0.583887
vt 0.474425 0.716976
vt 0.008368 0.879776
vt 0.226881 0.878584
vt 0.474425 0.667405
vt 0.177310 0.878584
vt 0.226881 0.791175
vt 0.007134 0.792375
vt 0.177310 0.791175
vt 0.219350 0.564854
vt 0.342918 0.745798
vt 0.184842 0.564854
vt 0.308410 0.745798
vt 0.066177 0.613377
vt 0.115747 0.613028
vt 0.219350 0.478034
vt 0.420983 0.783793
vt 0.455491 0.783793
vt 0.184842 0.478034
vt 0.230345 0.783793
vt 0.065270 0.484795
vt 0.114840 0.484445
vt 0.177310 0.572385
vt 0.004047 0.573608
vt 0.226881 0.572385
vt 0.002610 0.471735
vt 0.226881 0.470502
vt 0.177310 0.470502
vt 0.752138 0.807868
vt 0.736888 0.792618
vt 0.452754 0.807868
vt 0.602446 0.792618
vt 0.587196 0.807868
vt 0.452754 0.968932
vt 0.736888 0.984182
vt 0.752138 0.968932
vt 0.587196 0.968932
vt 0.602446 0.984182
vt 0.602446 0.807868
vt 0.736888 0.807868
vt 0.602446 0.968932
vt 0.736888 0.968932
vt 0.752138 0.913185
vt 0.452754 0.913185
vt 0.752138 0.863614
vt 0.452754 0.863614
vt 0.587196 0.863614
vt 0.587196 0.913185
vt 0.769533 0.866484
vt 0.708573 0.459039
vt 0.484577 0.459039
vt 0.810590 0.866484
vt 0.667515 0.459039
vt 0.602446 0.863614
vt 0.873683 0.991625
vt 0.602446 0.913185
vt 0.923253 0.991975
vt 0.991975 0.291832
vt 0.765275 0.290582
vt 0.814847 0.290582
vt 0.814847 0.219402
vt 0.878849 0.259431
vt 0.765275 0.219402
vt 0.928419 0.259781
vt 0.769532 0.787588
vt 0.555517 0.424511
vt 0.924031 0.881659
vt 0.874461 0.881309
vt 0.810590 0.787588
vt 0.596575 0.424511
vt 0.736888 0.913185
vt 0.983789 0.871933
vt 0.765276 0.870741
vt 0.736888 0.863614
vt 0.814847 0.870741
vt 0.765276 0.783331
vt 0.985022 0.784532
vt 0.814847 0.783331
vt 0.708573 0.504199
vt 0.484577 0.504199
vt 0.667515 0.504199
vt 0.555517 0.504199
vt 0.596575 0.504199
vt 0.772807 0.557010
vt 0.342918 0.384605
vt 0.807315 0.557010
vt 0.308410 0.384605
vt 0.925979 0.605534
vt 0.876409 0.605184
vt 0.772807 0.470190
vt 0.420983 0.346610
vt 0.455491 0.346610
vt 0.807315 0.470190
vt 0.230345 0.346610
vt 0.926886 0.476951
vt 0.877317 0.476602
vt 0.814847 0.564542
vt 0.988109 0.565764
vt 0.765276 0.564542
vt 0.989547 0.463891
vt 0.765276 0.462658
vt 0.814847 0.462658
vt 0.308410 0.565202
vt 0.342918 0.565202
vt 0.420983 0.565202
vt 0.455491 0.565202
vt 0.230345 0.565202
s 1
usemtl kw_barrier_wood.002
f 105/182/17 99/172/17 100/175/17 108/186/17
f 121/209/18 112/194/18 103/179/18 104/180/18
f 108/186/19 100/175/19 103/179/19 112/194/19
f 100/176/20 99/173/20 104/180/20 103/179/20
f 106/183/21 97/167/21 102/178/21 122/212/21
f 97/168/22 98/170/22 101/177/22 102/178/22
f 99/174/21 105/181/21 121/209/21 104/180/21
f 105/181/21 106/183/21 122/212/21 121/209/21
f 98/171/19 107/185/19 111/192/19 101/177/19
f 107/185/19 108/186/19 112/194/19 111/192/19
f 102/178/18 101/177/18 111/192/18 122/212/18
f 131/228/20 135/233/20 113/196/20 116/202/20
f 97/169/17 106/184/17 107/185/17 98/171/17
f 106/184/17 105/182/17 108/186/17 107/185/17
f 114/198/21 115/199/21 116/201/21 113/197/21
f 132/229/23 131/228/23 116/202/23 115/200/23
f 135/234/24 136/235/24 114/198/24 113/197/24
f 136/235/22 132/229/22 115/200/22 114/198/22
f 122/213/22 111/193/22 119/206/22 124/216/22
f 110/191/22 120/208/22 168/290/22 166/288/22
f 111/193/23 112/195/23 118/205/23 119/206/23
f 112/195/20 121/210/20 123/215/20 118/205/20
f 110/190/24 109/187/24 121/211/24 122/213/24
f 109/187/24 117/203/24 123/214/24 121/211/24
f 120/207/24 110/190/24 122/213/24 124/216/24
f 117/203/24 120/207/24 124/216/24 123/214/24
f 124/216/22 119/206/22 128/222/22 133/230/22
f 109/188/19 110/191/19 166/288/19 165/286/19
f 120/208/21 117/204/21 167/289/21 168/290/21
f 117/204/20 109/189/20 165/287/20 167/289/20
f 123/214/24 124/216/24 133/230/24 134/232/24
f 119/206/23 118/205/23 127/221/23 128/222/23
f 118/205/20 123/215/20 134/231/20 127/221/20
f 133/230/22 128/222/22 132/229/22 136/235/22
f 130/225/21 129/224/21 183/312/21 184/313/21
f 128/222/23 127/221/23 131/228/23 132/229/23
f 127/221/20 134/231/20 135/233/20 131/228/20
f 126/219/24 125/217/24 134/232/24 133/230/24
f 125/217/24 129/223/24 135/234/24 134/232/24
f 130/226/24 126/219/24 133/230/24 136/235/24
f 129/223/24 130/226/24 136/235/24 135/234/24
f 129/224/20 125/218/20 182/311/20 183/312/20
f 126/220/22 130/227/22 184/314/22 181/310/22
f 125/218/19 126/220/19 181/310/19 182/311/19
f 145/251/18 148/255/18 140/244/18 139/241/18
f 161/278/17 144/249/17 143/248/17 152/263/17
f 148/255/19 152/263/19 143/248/19 140/244/19
f 140/245/20 143/248/20 144/249/20 139/242/20
f 146/252/21 162/281/21 142/247/21 137/236/21
f 137/237/22 142/247/22 141/246/22 138/239/22
f 139/243/21 144/249/21 161/278/21 145/250/21
f 145/250/21 161/278/21 162/281/21 146/252/21
f 138/240/19 141/246/19 151/261/19 147/254/19
f 147/254/19 151/261/19 152/263/19 148/255/19
f 142/247/17 162/281/17 151/261/17 141/246/17
f 175/302/20 156/271/20 153/265/20 179/307/20
f 137/238/18 138/240/18 147/254/18 146/253/18
f 146/253/18 147/254/18 148/255/18 145/251/18
f 154/267/21 153/266/21 156/270/21 155/268/21
f 176/303/25 155/269/25 156/271/25 175/302/25
f 179/308/26 153/266/26 154/267/26 180/309/26
f 180/309/22 154/267/22 155/269/22 176/303/22
f 162/282/22 164/285/22 159/275/22 151/262/22
f 150/260/22 166/288/22 168/290/22 160/277/22
f 151/262/25 159/275/25 158/274/25 152/264/25
f 152/264/20 158/274/20 163/284/20 161/279/20
f 150/259/26 162/282/26 161/280/26 149/256/26
f 149/256/26 161/280/26 163/283/26 157/272/26
f 160/276/26 164/285/26 162/282/26 150/259/26
f 157/272/26 163/283/26 164/285/26 160/276/26
f 164/285/22 177/304/22 172/296/22 159/275/22
f 149/257/19 165/286/19 166/288/19 150/260/19
f 160/277/21 168/290/21 167/289/21 157/273/21
f 157/273/20 167/289/20 165/287/20 149/258/20
f 163/283/26 178/306/26 177/304/26 164/285/26
f 159/275/25 172/296/25 171/295/25 158/274/25
f 158/274/20 171/295/20 178/305/20 163/284/20
f 177/304/22 180/309/22 176/303/22 172/296/22
f 174/299/21 184/313/21 183/312/21 173/298/21
f 172/296/25 176/303/25 175/302/25 171/295/25
f 171/295/20 175/302/20 179/307/20 178/305/20
f 170/293/26 177/304/26 178/306/26 169/291/26
f 169/291/26 178/306/26 179/308/26 173/297/26
f 174/300/26 180/309/26 177/304/26 170/293/26
f 173/297/26 179/308/26 180/309/26 174/300/26
f 173/298/20 183/312/20 182/311/20 169/292/20
f 170/294/22 181/310/22 184/314/22 174/301/22
f 169/292/19 182/311/19 181/310/19 170/294/19
