# Blender 3.4.1
# www.blender.org
mtllib Target.mtl
o polySurface41
v 0.008610 0.443911 -0.135647
v -0.007242 0.443911 -0.135647
v -0.015168 0.430183 -0.135647
v -0.007242 0.416454 -0.135647
v 0.008610 0.416454 -0.135647
v 0.016536 0.430183 -0.135647
v 0.008610 0.443911 -0.119656
v -0.007242 0.443911 -0.119656
v -0.015168 0.430183 -0.119656
v -0.007242 0.416454 -0.119656
v 0.008610 0.416454 -0.119656
v 0.016536 0.430183 -0.119656
v 0.005580 0.438663 -0.119656
v -0.004212 0.438663 -0.119656
v -0.009109 0.430183 -0.119656
v -0.004212 0.421702 -0.119656
v 0.005580 0.421702 -0.119656
v 0.010477 0.430183 -0.119656
v 0.005580 0.438663 -0.089198
v -0.004212 0.438663 -0.089198
v -0.009109 0.430183 -0.089198
v -0.004212 0.421702 -0.089198
v 0.005580 0.421702 -0.089198
v 0.010477 0.430183 -0.089198
v -0.036912 0.396691 -0.009857
v 0.027164 0.396691 -0.009857
v 0.027164 0.464931 -0.009857
v -0.036912 0.464931 -0.009857
v -0.036912 0.464931 -0.082239
v 0.027164 0.464931 -0.082239
v 0.027164 0.396691 -0.082239
v -0.036912 0.396691 -0.082239
v -0.046363 0.396691 0.000126
v 0.036614 0.396691 0.000126
v 0.036614 0.464931 0.000126
v -0.046363 0.464931 0.000126
v -0.046363 0.464931 -0.092222
v 0.036614 0.464931 -0.092222
v 0.036614 0.396691 -0.092222
v -0.046363 0.396691 -0.092222
v 0.079079 0.392403 0.054269
v 0.079079 0.392403 0.002142
v 0.051509 0.446541 0.002142
v 0.051509 0.446541 0.054269
v 0.145539 0.347996 0.002142
v 0.145539 0.347996 0.054269
v 0.189946 0.281536 0.002142
v 0.189946 0.281536 0.054269
v 0.000684 0.462135 0.002142
v 0.000684 0.462135 0.054269
v 0.010449 0.433663 0.002142
v 0.020215 0.416750 0.002142
v 0.020215 0.416750 0.054269
v 0.010449 0.433663 0.054269
v 0.205540 0.203141 0.002142
v 0.205540 0.203141 0.054269
v -0.050141 0.446541 0.002142
v -0.050141 0.446541 0.054269
v -0.018845 0.416750 0.002142
v -0.009080 0.433663 0.002142
v -0.009080 0.433663 0.054269
v -0.018845 0.416750 0.054269
v 0.010449 0.399837 0.002142
v -0.009080 0.399837 0.002142
v -0.009080 0.399837 0.054269
v 0.010449 0.399837 0.054269
v 0.189946 0.124746 0.002142
v 0.189946 0.124746 0.054269
v -0.077711 0.392403 0.002142
v -0.077711 0.392403 0.054269
v -0.144171 0.347996 0.002142
v -0.144171 0.347996 0.054269
v 0.145539 0.058286 0.002142
v 0.145539 0.058286 0.054269
v -0.188578 0.281536 0.002142
v -0.188578 0.281536 0.054269
v 0.079079 0.013879 0.002142
v 0.079079 0.013879 0.054269
v -0.204172 0.203141 0.002142
v -0.204172 0.203141 0.054269
v 0.000684 -0.001715 0.002142
v 0.000684 -0.001715 0.054269
v -0.188578 0.124746 0.002142
v -0.188578 0.124746 0.054269
v -0.077711 0.013879 0.002142
v -0.077711 0.013879 0.054269
v -0.144171 0.058286 0.002142
v -0.144171 0.058286 0.054269
v 0.004167 0.433157 -0.012914
v -0.002798 0.433157 -0.012914
v -0.002798 0.433157 0.053550
v 0.004167 0.433157 0.053550
v -0.006281 0.427125 -0.012914
v -0.006281 0.427125 0.053550
v -0.002798 0.421093 -0.012914
v -0.002798 0.421093 0.053550
v 0.004167 0.421093 -0.012914
v 0.004167 0.421093 0.053550
v 0.007649 0.427125 -0.012914
v 0.007649 0.427125 0.053550
v 0.004167 0.434465 0.057332
v -0.002798 0.434465 0.057332
v -0.006281 0.428723 0.059179
v -0.002798 0.422981 0.061025
v 0.004167 0.422981 0.061025
v 0.007649 0.428723 0.059179
v 0.004167 0.435223 0.058789
v -0.002798 0.435223 0.058789
v -0.006281 0.431059 0.063152
v -0.002798 0.426894 0.067516
v 0.004167 0.426894 0.067516
v 0.007649 0.431059 0.063152
v 0.004167 0.436699 0.059843
v -0.002798 0.436699 0.059843
v -0.006281 0.435236 0.065695
v -0.002798 0.433773 0.071547
v 0.004167 0.433773 0.071547
v 0.007649 0.435236 0.065695
v 0.004167 0.438376 0.060298
v -0.002798 0.438376 0.060298
v -0.006281 0.438375 0.066325
v -0.002798 0.438375 0.072351
v 0.004167 0.438375 0.072351
v 0.007649 0.438375 0.066325
v 0.002901 0.440016 0.062487
v -0.001533 0.440016 0.062487
v -0.003751 0.440016 0.066325
v -0.001533 0.440016 0.070162
v 0.002901 0.440016 0.070162
v 0.005119 0.440016 0.066325
vn 0.5000 0.8660 -0.0000
vn -0.5000 0.8660 -0.0000
vn -1.0000 -0.0000 -0.0000
vn -0.5000 -0.8660 -0.0000
vn 0.5000 -0.8660 -0.0000
vn 1.0000 -0.0000 -0.0000
vn -0.0000 -0.0000 -1.0000
vn -0.0000 -0.0000 1.0000
vn -0.0000 -1.0000 -0.0000
vn -0.0000 1.0000 -0.0000
vn 0.7235 0.6903 -0.0000
vn 0.6646 0.7472 -0.0000
vn 0.7071 0.7071 -0.0000
vn 0.9239 0.3827 -0.0000
vn -0.6646 0.7472 -0.0000
vn 0.9239 -0.3827 -0.0000
vn -0.7235 0.6903 -0.0000
vn -0.7071 0.7071 -0.0000
vn 0.7071 -0.7071 -0.0000
vn -0.9239 0.3827 -0.0000
vn 0.3827 -0.9239 -0.0000
vn -0.9239 -0.3827 -0.0000
vn -0.3827 -0.9239 -0.0000
vn -0.7071 -0.7071 -0.0000
vn -0.5068 0.8619 -0.0176
vn 0.5068 0.8619 -0.0176
vn -0.9999 -0.0142 0.0031
vn -0.4942 -0.8691 0.0208
vn 0.4942 -0.8691 0.0208
vn 0.9999 -0.0142 0.0031
vn -0.5824 0.7545 -0.3026
vn 0.5824 0.7545 -0.3026
vn -0.9861 -0.1517 0.0683
vn -0.4310 -0.8342 0.3440
vn 0.4310 -0.8342 0.3440
vn 0.9861 -0.1518 0.0683
vn -0.6629 0.5514 -0.5066
vn 0.6629 0.5514 -0.5066
vn -0.9698 -0.1700 0.1747
vn -0.4073 -0.6379 0.6536
vn 0.4073 -0.6379 0.6536
vn 0.9698 -0.1700 0.1747
vn -0.6324 0.3314 -0.7002
vn 0.6325 0.3313 -0.7002
vn -0.9764 -0.0877 0.1974
vn -0.4164 -0.3513 0.8386
vn 0.4164 -0.3513 0.8386
vn 0.9764 -0.0877 0.1974
vn -0.6088 0.1927 -0.7696
vn 0.6088 0.1927 -0.7696
vn -0.9819 -0.0272 0.1874
vn -0.4278 -0.1581 0.8899
vn 0.4278 -0.1584 0.8899
vn 0.9819 -0.0272 0.1874
vn 0.2721 0.8389 -0.4714
vn -0.2721 0.8389 -0.4714
vn -0.1495 0.9542 -0.2592
vn 0.1495 0.9542 -0.2592
vn -0.5441 0.8390 -0.0000
vn -0.2992 0.9542 -0.0000
vn -0.2721 0.8388 0.4715
vn -0.1495 0.9542 0.2592
vn 0.2721 0.8388 0.4715
vn 0.1495 0.9542 0.2592
vn 0.5441 0.8390 -0.0000
vn 0.2992 0.9542 -0.0000
vt 0.906687 0.841594
vt 0.897339 0.824307
vt 0.888884 0.816780
vt 0.859348 0.826562
vt 0.876140 0.846852
vt 0.898041 0.851957
vt 0.925734 0.838621
vt 0.919378 0.817175
vt 0.906489 0.799732
vt 0.891718 0.785084
vt 0.870649 0.880961
vt 0.894540 0.871551
vt 0.917119 0.861512
vt 0.929187 0.840457
vt 0.926237 0.818610
vt 0.916868 0.799676
vt 0.909033 0.783286
vt 0.891477 0.890112
vt 0.904795 0.876965
vt 0.921139 0.862064
vt 0.981744 0.842339
vt 0.981035 0.818331
vt 0.977480 0.796388
vt 0.973631 0.776399
vt 0.964031 0.909145
vt 0.971040 0.889102
vt 0.978089 0.866686
vt 0.732853 0.789073
vt 0.826802 0.774652
vt 0.444138 0.777462
vt 0.814188 0.912232
vt 0.430172 0.912192
vt 0.737627 0.898102
vt 0.631791 0.900252
vt 0.535547 0.900340
vt 0.530692 0.791394
vt 0.628116 0.788868
vt 0.736963 0.800924
vt 0.847933 0.786206
vt 0.426218 0.787775
vt 0.832295 0.901527
vt 0.409360 0.900862
vt 0.744665 0.886829
vt 0.631828 0.888823
vt 0.534051 0.888543
vt 0.525862 0.802522
vt 0.625928 0.800466
vt 0.766557 0.670729
vt 0.896411 0.121757
vt 0.896334 0.121751
vt 0.801538 0.661846
vt 0.873759 0.107605
vt 0.896323 0.121756
vt 0.879634 0.122804
vt 0.896223 0.121732
vt 0.892276 0.583778
vt 0.861380 0.089668
vt 0.892935 0.605779
vt 0.955862 0.472488
vt 0.856651 0.068379
vt 0.960945 0.490548
vt 0.896433 0.121862
vt 0.893147 0.131178
vt 0.896350 0.121831
vt 0.892283 0.124085
vt 0.890537 0.119568
vt 0.896027 0.121595
vt 0.895990 0.121716
vt 0.974949 0.342646
vt 0.860274 0.046862
vt 0.981154 0.357748
vt 0.896486 0.121883
vt 0.908123 0.131050
vt 0.896564 0.121917
vt 0.901795 0.122989
vt 0.898042 0.126095
vt 0.896454 0.121910
vt 0.896849 0.122048
vt 0.895390 0.117820
vt 0.900226 0.119575
vt 0.897064 0.121986
vt 0.896623 0.121743
vt 0.944046 0.213986
vt 0.871727 0.028278
vt 0.950136 0.227058
vt 0.896495 0.121881
vt 0.485348 0.665369
vt 0.920120 0.123602
vt 0.548249 0.674781
vt 0.896598 0.121908
vt 0.393870 0.596424
vt 0.940930 0.117034
vt 0.397280 0.617192
vt 0.866430 0.106240
vt 0.889333 0.015358
vt 0.871962 0.118098
vt 0.323292 0.491826
vt 0.957751 0.103118
vt 0.324262 0.508267
vt 0.753297 0.036266
vt 0.910511 0.010003
vt 0.758139 0.047373
vt 0.295443 0.364930
vt 0.968111 0.083891
vt 0.295809 0.378527
vt 0.622013 0.015010
vt 0.932152 0.013005
vt 0.625971 0.025589
vt 0.316899 0.235541
vt 0.970482 0.062175
vt 0.317699 0.247088
vt 0.492873 0.045665
vt 0.951079 0.023923
vt 0.495835 0.055968
vt 0.385851 0.123328
vt 0.964513 0.041157
vt 0.387717 0.133800
vt 0.377859 0.955005
vt 0.379668 0.737215
vt 0.377612 0.919528
vt 0.721419 0.919485
vt 0.724562 0.954713
vt 0.725073 0.747172
vt 0.377150 0.883782
vt 0.711550 0.885074
vt 0.376800 0.847262
vt 0.705451 0.850091
vt 0.377083 0.810305
vt 0.706231 0.814973
vt 0.378159 0.773449
vt 0.714191 0.780690
vt 0.749669 0.951811
vt 0.754778 0.753966
vt 0.746650 0.916186
vt 0.738510 0.882796
vt 0.732789 0.850805
vt 0.734097 0.817121
vt 0.742285 0.785745
vt 0.759616 0.950665
vt 0.766712 0.756332
vt 0.757088 0.915102
vt 0.759810 0.881371
vt 0.761149 0.850901
vt 0.762859 0.820480
vt 0.764245 0.789614
vt 0.770379 0.949427
vt 0.779883 0.757242
vt 0.768379 0.914749
vt 0.783358 0.882773
vt 0.793151 0.852347
vt 0.794294 0.822435
vt 0.788078 0.790831
vt 0.780491 0.948107
vt 0.791827 0.757728
vt 0.778605 0.914533
vt 0.798984 0.884642
vt 0.813581 0.852702
vt 0.814169 0.823051
vt 0.803750 0.791060
vt 0.795503 0.938531
vt 0.809477 0.765562
vt 0.863795 0.825890
vt 0.794357 0.914675
vt 0.864340 0.849715
vt 0.812354 0.887366
vt 0.844972 0.862922
vt 0.824835 0.853556
vt 0.825188 0.824713
vt 0.816542 0.791869
vt 0.844107 0.814014
s 1
usemtl arrow_target
f 1/1/1 2/2/2 8/8/2 7/7/1
f 2/2/2 3/3/3 9/9/3 8/8/2
f 3/3/3 4/4/4 10/10/4 9/9/3
f 4/4/4 5/5/5 11/12/5 10/11/4
f 5/5/5 6/6/6 12/13/6 11/12/5
f 6/6/6 1/1/1 7/7/1 12/13/6
f 1/1/7 6/6/7 5/5/7 4/4/7 3/3/7 2/2/7
f 7/7/8 8/8/8 14/15/8 13/14/8
f 8/8/8 9/9/8 15/16/8 14/15/8
f 9/9/8 10/10/8 16/17/8 15/16/8
f 10/11/8 11/12/8 17/19/8 16/18/8
f 11/12/8 12/13/8 18/20/8 17/19/8
f 12/13/8 7/7/8 13/14/8 18/20/8
f 13/14/1 14/15/2 20/22/2 19/21/1
f 14/15/2 15/16/3 21/23/3 20/22/2
f 15/16/3 16/17/4 22/24/4 21/23/3
f 16/18/4 17/19/5 23/26/5 22/25/4
f 17/19/5 18/20/6 24/27/6 23/26/5
f 18/20/6 13/14/1 19/21/1 24/27/6
f 33/38/8 34/39/8 35/41/8 36/43/8
f 37/44/7 38/45/7 39/46/7 40/47/7
f 34/40/6 39/46/6 38/45/6 35/42/6
f 40/47/3 33/38/3 36/43/3 37/44/3
f 25/28/9 26/29/9 34/39/9 33/38/9
f 27/31/10 28/33/10 36/43/10 35/41/10
f 29/34/10 30/35/10 38/45/10 37/44/10
f 31/36/9 32/37/9 40/47/9 39/46/9
f 26/30/9 31/36/9 39/46/9 34/40/9
f 30/35/10 27/32/10 35/42/10 38/45/10
f 32/37/9 25/28/9 33/38/9 40/47/9
f 28/33/10 29/34/10 37/44/10 36/43/10
f 41/49/11 42/50/11 43/53/12 44/55/12
f 45/56/13 42/51/11 41/48/11 46/58/13
f 47/59/14 45/56/13 46/58/13 48/61/14
f 43/53/12 49/62/10 50/64/10 44/55/12
f 51/65/4 52/66/3 53/67/3 54/68/4
f 55/69/6 47/59/14 48/61/14 56/71/6
f 49/62/10 57/72/15 58/74/15 50/64/10
f 59/75/6 60/76/5 61/77/5 62/78/6
f 63/79/2 64/80/1 65/81/1 66/82/2
f 67/83/16 55/69/6 56/71/6 68/85/16
f 69/86/17 70/90/17 58/74/15 57/72/15
f 69/87/17 71/91/18 72/93/18 70/89/17
f 73/94/19 67/83/16 68/85/16 74/96/19
f 71/91/18 75/97/20 76/99/20 72/93/18
f 77/100/21 73/94/19 74/96/19 78/102/21
f 75/97/20 79/103/3 80/105/3 76/99/20
f 81/106/9 77/100/21 78/102/21 82/108/9
f 79/103/3 83/109/22 84/111/22 80/105/3
f 85/112/23 81/106/9 82/108/9 86/114/23
f 83/109/22 87/115/24 88/117/24 84/111/22
f 87/115/24 85/112/23 86/114/23 88/117/24
f 52/66/3 63/79/2 66/82/2 53/67/3
f 64/80/1 59/75/6 62/78/6 65/81/1
f 50/64/8 58/74/8 62/78/8 61/77/8
f 44/55/8 50/64/8 54/68/8 53/67/8
f 51/65/4 54/68/4 61/77/5 60/76/5
f 41/49/8 44/55/8 53/67/8 66/82/8
f 58/74/8 70/90/8 65/81/8 62/78/8
f 78/102/8 74/96/8 88/117/8 86/114/8
f 74/96/8 68/85/8 84/111/8 88/117/8
f 68/85/8 56/71/8 80/105/8 84/111/8
f 56/71/8 48/61/8 76/99/8 80/105/8
f 48/61/8 46/58/8 72/93/8 76/99/8
f 46/58/8 41/48/8 70/89/8 72/93/8
f 66/82/8 65/81/8 70/90/8 41/49/8
f 82/108/8 78/102/8 86/114/8
f 57/73/7 49/63/7 60/76/7 59/75/7
f 49/63/7 43/54/7 52/66/7 51/65/7
f 69/88/7 57/73/7 59/75/7 64/80/7
f 43/54/7 42/52/7 63/79/7 52/66/7
f 73/95/7 77/101/7 85/113/7 87/116/7
f 45/57/7 47/60/7 75/98/7 71/92/7
f 47/60/7 55/70/7 79/104/7 75/98/7
f 55/70/7 67/84/7 83/110/7 79/104/7
f 67/84/7 73/95/7 87/116/7 83/110/7
f 42/52/7 45/57/7 71/92/7 69/88/7
f 64/80/7 63/79/7 42/52/7 69/88/7
f 77/101/7 81/107/7 85/113/7
f 61/77/8 54/68/8 50/64/8
f 60/76/7 49/63/7 51/65/7
f 89/118/1 90/120/2 91/121/25 92/122/26
f 90/120/2 93/124/3 94/125/27 91/121/25
f 93/124/3 95/126/4 96/127/28 94/125/27
f 95/126/4 97/128/5 98/129/29 96/127/28
f 97/128/5 99/130/6 100/131/30 98/129/29
f 99/130/6 89/119/1 92/123/26 100/131/30
f 92/122/26 91/121/25 102/134/31 101/132/32
f 91/121/25 94/125/27 103/135/33 102/134/31
f 94/125/27 96/127/28 104/136/34 103/135/33
f 96/127/28 98/129/29 105/137/35 104/136/34
f 98/129/29 100/131/30 106/138/36 105/137/35
f 100/131/30 92/123/26 101/133/32 106/138/36
f 101/132/32 102/134/31 108/141/37 107/139/38
f 102/134/31 103/135/33 109/142/39 108/141/37
f 103/135/33 104/136/34 110/143/40 109/142/39
f 104/136/34 105/137/35 111/144/41 110/143/40
f 105/137/35 106/138/36 112/145/42 111/144/41
f 106/138/36 101/133/32 107/140/38 112/145/42
f 107/139/38 108/141/37 114/148/43 113/146/44
f 108/141/37 109/142/39 115/149/45 114/148/43
f 109/142/39 110/143/40 116/150/46 115/149/45
f 110/143/40 111/144/41 117/151/47 116/150/46
f 111/144/41 112/145/42 118/152/48 117/151/47
f 112/145/42 107/140/38 113/147/44 118/152/48
f 113/146/44 114/148/43 120/155/49 119/153/50
f 114/148/43 115/149/45 121/156/51 120/155/49
f 115/149/45 116/150/46 122/157/52 121/156/51
f 116/150/46 117/151/47 123/158/53 122/157/52
f 117/151/47 118/152/48 124/159/54 123/158/53
f 118/152/48 113/147/44 119/154/50 124/159/54
f 119/153/55 120/155/56 126/163/57 125/160/58
f 120/155/56 121/156/59 127/165/60 126/163/57
f 121/156/59 122/157/61 128/167/62 127/165/60
f 122/157/61 123/158/63 129/168/64 128/167/62
f 123/158/63 124/159/65 130/169/66 129/168/64
f 124/159/65 119/154/55 125/161/58 130/169/66
f 127/166/60 128/167/62 129/168/64 130/170/66
f 126/164/57 127/166/60 130/170/66 125/162/58
